<svg width="192" height="192" viewBox="0 0 192 192" fill="none" xmlns="http://www.w3.org/2000/svg">
<rect width="192" height="192" rx="55" fill="#7755F3"/>
<path d="M47 75.5C47 68.5964 52.5964 63 59.5 63V63C66.4036 63 72 68.5964 72 75.5V143H69C56.8497 143 47 133.15 47 121V75.5Z" fill="white"/>
<path d="M83 61.5C83 54.5964 88.5964 49 95.5 49V49C102.404 49 108 54.5964 108 61.5V138C108 140.761 105.761 143 103 143H88C85.2386 143 83 140.761 83 138V61.5Z" fill="white"/>
<path d="M119 92.5C119 85.5964 124.596 80 131.5 80V80C138.404 80 144 85.5964 144 92.5V122C144 133.598 134.598 143 123 143H119V92.5Z" fill="white"/>
</svg>
